<svg width="285" height="20" xmlns="http://www.w3.org/2000/svg"><g fill="none" fill-rule="evenodd"><path d="M13.814 10.18c-.013.373-.023.78-.03 1.22-.006.44-.003.88.01 1.32.014.44.03.87.05 1.29.02.42.05.797.09 1.13.067.493.097.923.09 1.29-.006.367-.03.657-.07.87-.04.227-.123.363-.25.41-.126.047-.223-.07-.29-.35a9.74 9.74 0 0 1-.21-1.43 20.82 20.82 0 0 1-.03-1.79c0-.173.004-.407.01-.7a402.165 402.165 0 0 0 .05-2.7c0-.28.007-.76.02-1.44.014-.68.034-1.42.06-2.22-.266.16-.516.317-.75.47a9.196 9.196 0 0 0-.63.45c-.506.4-.923.617-1.25.65a1.74 1.74 0 0 1-.97-.19c-.2-.107-.303-.18-.31-.22-.006-.04.084-.067.27-.08.227-.013.517-.08.87-.2.354-.12.657-.253.91-.4.12-.067.364-.213.73-.44l1.17-.72c.014-.4.03-.79.05-1.17.02-.38.044-.723.07-1.03.027-.253.03-.49.01-.71a5.233 5.233 0 0 0-.07-.53c-.066-.253-.07-.413-.01-.48.06-.067.184-.007.37.18.254.253.41.497.47.73.06.233.077.47.05.71-.053.32-.096.633-.13.94-.033.307-.063.62-.09.94.214-.12.4-.227.56-.32a3.08 3.08 0 0 1 .34-.18c.227-.107.397-.163.51-.17a.551.551 0 0 1 .33.09c.107.067.147.147.12.24-.026.093-.153.187-.38.28a5.22 5.22 0 0 0-.61.28c-.286.147-.603.313-.95.5-.04.48-.073 1-.1 1.56-.026.56-.053 1.2-.08 1.92zm3.4-1.38c.054-.333.024-.66-.09-.98a1.99 1.99 0 0 0-.51-.8c-.16-.147-.22-.253-.18-.32.04-.067.174-.027.4.12.107.067.21.137.31.21.1.073.197.157.29.25.387-.32.824-.617 1.31-.89.487-.273.95-.477 1.39-.61.054-.013.12-.033.2-.06.014-.307.024-.61.03-.91.007-.3.024-.603.05-.91-.186.08-.366.163-.54.25a5.353 5.353 0 0 0-.48.27c-.226.147-.426.217-.6.21-.173-.007-.413-.077-.72-.21-.146-.067-.196-.133-.15-.2.047-.067.137-.093.27-.08.134.013.31-.007.53-.06.22-.053.424-.127.61-.22.107-.04.26-.107.46-.2l.64-.3c.027-.507.034-.903.02-1.19a2.856 2.856 0 0 0-.08-.63c-.12-.427-.17-.68-.15-.76.02-.08.124-.067.31.04.267.147.45.293.55.44.1.147.137.36.11.64-.013.12-.033.287-.06.5-.026.213-.053.44-.08.68a4.86 4.86 0 0 1 .25-.1c.074-.027.137-.053.19-.08.227-.107.464-.143.71-.11.247.033.464.11.65.23.254.16.127.413-.38.76-.386.267-.643.383-.77.35-.126-.033-.016-.177.33-.43.254-.187.38-.307.38-.36 0-.053-.113-.06-.34-.02-.16.04-.333.087-.52.14-.186.053-.373.12-.56.2-.026.24-.046.47-.06.69-.013.22-.026.41-.04.57v.7c.44-.053.884-.077 1.33-.07.447.007.75.023.91.05.2.053.394.173.58.36.187.187.274.447.26.78 0 .173-.01.453-.03.84-.02.387-.046.793-.08 1.22a94.48 94.48 0 0 1-.1 1.19c-.033.367-.063.61-.09.73-.066.24-.156.45-.27.63-.113.18-.216.27-.31.27-.186 0-.206-.293-.06-.88.04-.147.077-.413.11-.8.034-.387.06-.793.08-1.22.02-.427.037-.827.05-1.2.014-.373.02-.62.02-.74a.512.512 0 0 0-.2-.42 1.347 1.347 0 0 0-.53-.24 3.292 3.292 0 0 0-.77-.08 5.6 5.6 0 0 0-.92.08l-.08 1.68a6.489 6.489 0 0 1 .74-.04c.24 0 .35.06.33.18-.02.12-.15.247-.39.38-.12.067-.23.147-.33.24s-.243.267-.43.52a8.312 8.312 0 0 0-.03.39 4.92 4.92 0 0 1-.03.35c.494-.093.854-.113 1.08-.06.04.013.087.08.14.2a.312.312 0 0 1 0 .22c-.026.08-.106.107-.24.08a1.212 1.212 0 0 0-.42-.01c-.173.02-.373.05-.6.09-.026.253-.046.427-.06.52-.053.36-.1.617-.14.77-.04.153-.113.243-.22.27-.106.027-.193-.017-.26-.13-.066-.113-.08-.363-.04-.75.014-.093.024-.18.03-.26.007-.08.017-.167.03-.26a3.66 3.66 0 0 0-.33.1c-.113.04-.23.08-.35.12-.306.107-.506.15-.6.13-.093-.02-.153-.09-.18-.21a.232.232 0 0 1 .09-.26c.087-.067.284-.16.59-.28.214-.093.387-.193.52-.3a1.81 1.81 0 0 0 .38-.44c.014-.16.024-.313.03-.46.007-.147.017-.293.03-.44a6.48 6.48 0 0 1-.76.17c-.28.047-.506.063-.68.05-.266-.013-.393-.057-.38-.13.014-.073.14-.15.38-.23.24-.093.487-.173.74-.24.254-.067.507-.127.76-.18.027-.293.047-.577.06-.85l.04-.81c-.386.107-.78.263-1.18.47-.4.207-.753.423-1.06.65a.995.995 0 0 1-.21.13 4.966 4.966 0 0 1-.21.09c.094.133.14.307.14.52.027.68.027 1.303 0 1.87a35.435 35.435 0 0 1-.08 1.31c-.026.293-.083.427-.17.4-.086-.027-.176-.133-.27-.32a1.353 1.353 0 0 1-.1-.37 3.787 3.787 0 0 1-.04-.59c0-.227.007-.477.02-.75.014-.273.04-.557.08-.85zm8.7 3.4c.094.12.097.237.01.35-.086.113-.243.137-.47.07a2.618 2.618 0 0 0-.49-.11c-.22-.033-.466-.067-.74-.1a11.23 11.23 0 0 0-.86-.07c-.3-.013-.576-.02-.83-.02-.013 0-.02.003-.02.01s-.006.01-.02.01c.014.16.034.36.06.6.054.907.09 1.677.11 2.31.02.633.02 1.173 0 1.62-.02.447-.056.82-.11 1.12-.053.3-.12.57-.2.81-.186.56-.613.627-1.28.2a47.28 47.28 0 0 0-2.34-1.42c-.213-.12-.296-.2-.25-.24.047-.04.164-.02.35.06a62.979 62.979 0 0 0 2.14.84c.347.12.58.137.7.05.12-.087.207-.357.26-.81.014-.173.024-.43.03-.77.007-.34.01-.737.01-1.19 0-.453-.01-.95-.03-1.49-.02-.54-.05-1.097-.09-1.67-.386.04-.786.097-1.2.17-.413.073-.82.157-1.22.25s-.773.2-1.12.32c-.346.12-.64.24-.88.36a3.45 3.45 0 0 1-1.05.36 4.22 4.22 0 0 1-1.09.02c-.293-.027-.45-.087-.47-.18-.02-.093.137-.153.47-.18a5.1 5.1 0 0 0 1-.2c.36-.107.714-.24 1.06-.4.28-.133.6-.257.96-.37.36-.113.737-.217 1.13-.31.394-.093.794-.17 1.2-.23.407-.06.804-.103 1.19-.13.014-.253.114-.393.3-.42a.16.16 0 0 1 .15.04c.047.04.09.153.13.34h.18c.254 0 .56.003.92.01s.674-.003.94-.03a1.88 1.88 0 0 1 .43.01c.154.02.3.05.44.09.14.04.264.09.37.15.107.06.18.117.22.17zm-7.02 3.64c.414-.24.627-.473.64-.7.014-.227-.08-.36-.28-.4a11.106 11.106 0 0 0-.65-.09 30.847 30.847 0 0 0-.89-.09c-.293-.027-.503-.103-.63-.23-.126-.127-.116-.203.03-.23.227-.053.54-.077.94-.07.4.007.76.037 1.08.09.32.053.587.153.8.3.214.147.34.32.38.52.027.147-.046.327-.22.54-.173.213-.48.42-.92.62-.266.107-.44.127-.52.06-.08-.067 0-.173.24-.32zm5.04-13.58c-.12-.067-.156-.123-.11-.17.047-.047.164-.037.35.03.4.12.724.257.97.41.247.153.444.357.59.61.187.32.264.55.23.69-.033.14-.136.243-.31.31-.106.04-.2.013-.28-.08-.08-.093-.153-.293-.22-.6a1.267 1.267 0 0 0-.35-.59c-.18-.18-.47-.383-.87-.61zm12.189.22c-.147-.413-.17-.643-.07-.69.1-.047.303.103.61.45.253.28.397.51.43.69.033.18-.023.343-.17.49-.293.267-.633.567-1.02.9a79.43 79.43 0 0 0-1.16 1.02c.387.213.673.393.86.54.187.147.353.36.5.64.12.213.163.39.13.53s-.15.323-.35.55c-.12.147-.257.32-.41.52-.153.2-.33.433-.53.7a3.52 3.52 0 0 0-.19.25c-.06.087-.123.183-.19.29l.02.02c.2.307.333.627.4.96.067.333.093.713.08 1.14-.013.267-.017.66-.01 1.18.007.52.03 1.24.07 2.16 0 .107.023.157.07.15.047-.007.083-.05.11-.13a10.381 10.381 0 0 0 .55-1.77c.073-.327.147-.687.22-1.08.073-.393.163-.843.27-1.35.053-.24.1-.377.14-.41.04-.033.047.09.02.37-.12 1.147-.25 2.11-.39 2.89-.14.78-.317 1.483-.53 2.11-.227.68-.403 1.047-.53 1.1-.127.053-.25-.093-.37-.44-.067-.2-.12-.377-.16-.53a2.77 2.77 0 0 1-.08-.46 3.792 3.792 0 0 1-.01-.48c.007-.167.023-.363.05-.59a9.76 9.76 0 0 0 .06-1.34 16.88 16.88 0 0 0-.06-1c-.027-.347-.06-.69-.1-1.03-.04-.34-.087-.663-.14-.97V9.8c-.307.427-.613.847-.92 1.26-.307.413-.607.807-.9 1.18-.347.44-.587.677-.72.71-.133.033-.233-.13-.3-.49-.027-.133-.013-.24.04-.32.053-.08.14-.173.26-.28l.33-.33c.113-.113.237-.243.37-.39a26.117 26.117 0 0 0 1.04-1.22c.307-.4.607-.817.9-1.25.293-.433.553-.83.78-1.19.227-.387.27-.717.13-.99s-.443-.543-.91-.81c-.347.347-.657.567-.93.66-.273.093-.457.093-.55 0-.133-.12-.177-.223-.13-.31.047-.087.223-.21.53-.37.133-.067.28-.157.44-.27a6.08 6.08 0 0 0 .46-.36l.43-.37.35-.3c.547-.467.9-.843 1.06-1.13.16-.287.2-.537.12-.75zm2.6 6.68a13.552 13.552 0 0 1-.45-.42 2.623 2.623 0 0 1-.47-.6.975.975 0 0 1-.15-.52c.007-.16.063-.347.17-.56.187-.387.46-.72.82-1 .36-.28.713-.467 1.06-.56.347-.093.527-.22.54-.38.013-.16-.153-.253-.5-.28-.24-.013-.49.04-.75.16s-.557.3-.89.54l-.29.21c-.047.033.003-.043.15-.23.147-.227.317-.427.51-.6s.383-.32.57-.44c.24-.147.533-.21.88-.19.347.02.653.21.92.57.16.227.23.437.21.63-.02.193-.203.303-.55.33-.427.04-.86.14-1.3.3-.44.16-.8.407-1.08.74-.2.227-.29.393-.27.5.02.107.103.227.25.36.24.187.487.403.74.65s.453.463.6.65c.227.28.33.49.31.63-.02.14-.117.263-.29.37-.32.2-.607.6-.86 1.2a2.38 2.38 0 0 0-.07.2.579.579 0 0 1-.05.13c-.013.02-.02.01-.02-.03s.007-.127.02-.26c.027-.267.077-.513.15-.74.073-.227.19-.473.35-.74.067-.107.08-.2.04-.28-.04-.08-.14-.193-.3-.34zm8.86-.5c.093.093.117.197.07.31-.047.113-.237.15-.57.11a7.735 7.735 0 0 0-1.04-.01c-.347.02-.8.103-1.36.25-.16.04-.377.11-.65.21-.273.1-.563.203-.87.31.053.027.103.05.15.07.047.02.097.043.15.07.373.187.67.433.89.74.22.307.323.66.31 1.06-.013.253-.023.563-.03.93-.007.367-.01.74-.01 1.12v1.1c0 .353.007.637.02.85.027.56-.077 1.033-.31 1.42-.233.387-.517.647-.85.78-.387.16-.743.243-1.07.25a3.211 3.211 0 0 1-.97-.13c-.333-.093-.453-.17-.36-.23.093-.06.307-.103.64-.13a5.43 5.43 0 0 0 1.11-.16c.287-.08.513-.19.68-.33.167-.14.283-.303.35-.49s.113-.407.14-.66c.027-.293.047-.627.06-1 .013-.373.02-.747.02-1.12 0-.373-.003-.727-.01-1.06-.007-.333-.01-.6-.01-.8-.013-.56-.093-.967-.24-1.22s-.407-.447-.78-.58a1.678 1.678 0 0 1-.48-.22c-.187.067-.36.137-.52.21-.16.073-.287.13-.38.17-.253.133-.423.19-.51.17-.087-.02-.137-.15-.15-.39-.013-.187.147-.36.48-.52.213-.093.417-.207.61-.34.193-.133.363-.313.51-.54.08-.12.213-.323.4-.61.187-.287.4-.61.64-.97s.487-.737.74-1.13c.253-.393.493-.763.72-1.11-.307.107-.553.21-.74.31-.187.1-.427.237-.72.41-.253.16-.533.173-.84.04-.6 1.213-1.16 2.37-1.68 3.47s-.953 2.137-1.3 3.11c-.147.427-.273.803-.38 1.13-.107.327-.187.603-.24.83-.08.387-.153.597-.22.63-.067.033-.18-.103-.34-.41a2.786 2.786 0 0 1-.2-.55 3.743 3.743 0 0 1-.1-.49 2.733 2.733 0 0 1-.05-.4c-.007-.133-.003-.3.01-.5.027-.28.057-.44.09-.48.033-.04.083.053.15.28a2.76 2.76 0 0 1 .18.76c.027.267.063.41.11.43.047.02.143-.163.29-.55.36-1 .843-2.113 1.45-3.34.607-1.227 1.29-2.567 2.05-4.02-.16-.107-.203-.203-.13-.29.073-.087.31-.177.71-.27a8.55 8.55 0 0 0 .9-.34c.373-.16.693-.32.96-.48.213-.133.383-.2.51-.2s.283.053.47.16c.12.067.193.167.22.3.027.133-.027.233-.16.3a1.075 1.075 0 0 0-.41.36 9.687 9.687 0 0 0-.39.58c-.053.08-.163.237-.33.47a262.41 262.41 0 0 0-1.32 1.87c-.26.373-.51.747-.75 1.12a23.329 23.329 0 0 1 1.93-.58c.313-.08.607-.147.88-.2a6.09 6.09 0 0 1 .67-.1c.347-.013.61.003.79.05.18.047.317.117.41.21zm6.788-3.1c-.28.067-.44.067-.48 0-.04-.067.074-.147.34-.24a163.976 163.976 0 0 0 2.39-.89c.367-.14.737-.287 1.11-.44.374-.153.76-.317 1.16-.49a.446.446 0 0 0 .25-.29c.034-.127-.05-.35-.25-.67-.12-.187-.153-.323-.1-.41.054-.087.14-.077.26.03.227.213.404.423.53.63.127.207.23.45.31.73.067.213.05.36-.05.44-.1.08-.256.127-.47.14-.213.013-.426.05-.64.11-.213.06-.453.137-.72.23-.36.147-.69.273-.99.38-.3.107-.593.2-.88.28-.286.08-.573.157-.86.23l-.91.23zm6.9 4.34a4.86 4.86 0 0 1 .51-.72c.194-.227.45-.54.77-.94.094-.107.074-.207-.06-.3a3.237 3.237 0 0 0-.58-.3 2.782 2.782 0 0 1-.4-.2c-.106-.067-.186-.187-.24-.36-.04-.16-.026-.277.04-.35a.645.645 0 0 1 .28-.17c.12-.053.257-.18.41-.38.154-.2.357-.533.61-1 .107-.173.157-.3.15-.38-.006-.08-.083-.16-.23-.24-.266-.147-.483-.27-.65-.37-.166-.1-.323-.23-.47-.39-.08-.107-.096-.187-.05-.24.047-.053.157-.067.33-.04.2.04.464.133.79.28.327.147.657.34.99.58.174.133.264.257.27.37.007.113-.083.243-.27.39-.146.12-.343.31-.59.57-.246.26-.576.677-.99 1.25.267.12.507.237.72.35.214.113.414.25.6.41.094.08.137.187.13.32-.006.133-.116.327-.33.58-.253.307-.49.557-.71.75-.22.193-.463.417-.73.67-.24.213-.383.3-.43.26-.046-.04-.003-.173.13-.4zm7.42-1.92c.32.107.447.227.38.36-.066.133-.333.213-.8.24-.36.027-.716.08-1.07.16-.353.08-.703.18-1.05.3.014.2.02.383.02.55v2.89c0 .533-.003 1.107-.01 1.72a7536.81 7536.81 0 0 1-.04 3.55 72.95 72.95 0 0 1-.03 1.45 2.052 2.052 0 0 1-.09.54c-.046.133-.1.207-.16.22-.06.013-.113-.037-.16-.15-.046-.113-.076-.303-.09-.57-.026-.653-.05-1.4-.07-2.24l-.06-2.52c-.02-.84-.033-1.64-.04-2.4-.006-.76-.01-1.387-.01-1.88.014-.133.02-.27.02-.41v-.43c-.76.347-1.436.76-2.03 1.24a16.23 16.23 0 0 0-1.45 1.3c-.346.347-.593.56-.74.64-.146.08-.333.08-.56 0a1.351 1.351 0 0 1-.54-.33 2.004 2.004 0 0 1-.34-.49c-.08-.173-.093-.273-.04-.3.054-.027.127.007.22.1.227.24.444.363.65.37.207.007.404-.077.59-.25.214-.213.417-.4.61-.56.194-.16.4-.32.62-.48.22-.16.467-.333.74-.52.274-.187.604-.413.99-.68.187-.12.39-.237.61-.35.22-.113.444-.223.67-.33v-1.4c0-.467.004-.903.01-1.31.007-.407.017-.763.03-1.07.014-.307.027-.533.04-.68.04-.84.03-1.48-.03-1.92-.06-.44-.183-.767-.37-.98-.146-.16-.216-.277-.21-.35.007-.073.084-.137.23-.19.067-.027.154-.02.26.02.107.04.2.087.28.14.12.08.22.16.3.24.08.08.144.177.19.29.047.113.077.257.09.43.014.173.014.4 0 .68-.026.347-.046.757-.06 1.23a124.061 124.061 0 0 0-.04 3.08v1.51c.56-.2 1.074-.343 1.54-.43.467-.087.8-.097 1-.03zm-9.38 2.86c-.306.293-.603.57-.89.83l-.87.79v1.1c0 .293.024.597.07.91.047.313.1.61.16.89s.12.523.18.73c.06.207.11.35.15.43.174.347.23.557.17.63-.06.073-.243-.05-.55-.37a1.14 1.14 0 0 1-.26-.36c-.08-.16-.15-.337-.21-.53a8.527 8.527 0 0 1-.16-.59c-.046-.2-.083-.373-.11-.52-.026-.107-.043-.317-.05-.63-.006-.313-.01-.703-.01-1.17-.573.493-1.146.947-1.72 1.36-.226.16-.376.22-.45.18-.073-.04-.103-.253-.09-.64 0-.187.03-.343.09-.47a.943.943 0 0 1 .31-.35c.32-.227.644-.553.97-.98.327-.427.63-.873.91-1.34l.04-1.23c.014-.42.034-.85.06-1.29-.466.253-.906.497-1.32.73-.413.233-.74.43-.98.59-.2.12-.373.21-.52.27a.977.977 0 0 1-.42.08.87.87 0 0 1-.42-.15 3.769 3.769 0 0 1-.52-.42c-.173-.147-.23-.25-.17-.31s.15-.043.27.05c.16.12.347.173.56.16.214-.013.494-.093.84-.24.067-.027.197-.087.39-.18.194-.093.417-.207.67-.34l.82-.43c.294-.153.574-.303.84-.45.014-.187.024-.373.03-.56.007-.187.017-.373.03-.56 0-.187.04-.403.12-.65.08-.247.234-.397.46-.45.08-.013.147.047.2.18.054.133.054.413 0 .84a2.716 2.716 0 0 0-.05.39c-.006.127-.016.263-.03.41.12-.067.224-.127.31-.18l.23-.14c.267-.147.484-.243.65-.29a.82.82 0 0 1 .41-.03c.147.053.23.13.25.23.02.1-.103.203-.37.31-.213.107-.453.223-.72.35a46.37 46.37 0 0 0-.84.41c-.026.28-.046.553-.06.82-.013.267-.033.533-.06.8.134-.227.24-.383.32-.47.08-.087.174-.117.28-.09.107.027.154.11.14.25-.013.14-.12.383-.32.73-.066.133-.226.4-.48.8-.013.173-.02.34-.02.5 0 .16-.006.327-.02.5.307-.267.584-.517.83-.75.247-.233.437-.41.57-.53.427-.413.747-.87.96-1.37.214-.5.32-1.15.32-1.95 0-.387.027-.57.08-.55.054.02.094.197.12.53.067.92 0 1.683-.2 2.29s-.506 1.103-.92 1.49zm-2.38.76c-.173.227-.36.467-.56.72-.2.253-.42.513-.66.78.2-.147.404-.293.61-.44.207-.147.41-.3.61-.46v-.6zM78.88 6.02a4.52 4.52 0 0 1-.8-1.34 1.4 1.4 0 0 1-.09-.35 9.01 9.01 0 0 1-.08-.8.907.907 0 0 1 .01-.25c.027-.16.073-.24.14-.24.067 0 .113.133.14.4a9.563 9.563 0 0 0 .18.57 4.851 4.851 0 0 0 .24.57c.107.227.2.39.28.49.08.1.153.13.22.09.067-.04.14-.163.22-.37a9.01 9.01 0 0 0 .28-.93c.133-.453.227-.677.28-.67.053.007.04.19-.04.55-.107.4-.163.743-.17 1.03-.007.287.01.563.05.83.067.453.01.717-.17.79-.18.073-.41-.05-.69-.37zm2.84-1.56a2.553 2.553 0 0 1-.15-.32 5.2 5.2 0 0 1-.17-.49 8.04 8.04 0 0 1-.14-.54c-.04-.18-.067-.33-.08-.45-.027-.36.01-.56.11-.6.1-.04.203.093.31.4.093.267.18.463.26.59.08.127.173.19.28.19.107 0 .237-.063.39-.19a9.81 9.81 0 0 0 .63-.59c.16-.147.25-.207.27-.18.02.027-.063.167-.25.42-.387.507-.62.89-.7 1.15-.08.26-.093.477-.04.65.04.147.05.267.03.36-.02.093-.06.143-.12.15-.06.007-.143-.03-.25-.11-.107-.08-.233-.227-.38-.44zm7.64 1.66c.333.2.503.417.51.65.007.233-.123.43-.39.59-.227.133-.49.277-.79.43-.3.153-.613.307-.94.46-.327.153-.657.297-.99.43-.333.133-.647.247-.94.34-.053.013-.1.027-.14.04l-.12.04a.364.364 0 0 1-.18.22c-.093.067-.19.14-.29.22-.1.08-.237.193-.41.34-.08.08-.193.187-.34.32-.147.133-.3.28-.46.44l-.48.48c-.16.16-.3.293-.42.4l-.02.02c.827.16 1.44.48 1.84.96.173-.013.343-.023.51-.03.167-.007.343-.017.53-.03a2.9 2.9 0 0 1 .92.11c.307.087.533.203.68.35.147.147.17.3.07.46-.1.16-.27.267-.51.32-.56.133-1.073.24-1.54.32.08.347.107.773.08 1.28 0 .24-.033.5-.1.78a5.132 5.132 0 0 1-.68 1.59 3.6 3.6 0 0 1-.56.67c-.307.28-.603.443-.89.49-.287.047-.617-.003-.99-.15-.907-.333-1.64-.647-2.2-.94-.56-.293-1.013-.593-1.36-.9-.387-.32-.66-.607-.82-.86-.16-.253-.233-.493-.22-.72a.912.912 0 0 1 .25-.54c.153-.173.403-.34.75-.5.987-.453 1.893-.81 2.72-1.07.827-.26 1.687-.443 2.58-.55a.795.795 0 0 1-.12-.1.795.795 0 0 0-.12-.1c-.173-.12-.45-.227-.83-.32a4.284 4.284 0 0 0-1.17-.12c-.32.013-.5-.007-.54-.06-.04-.053.007-.16.14-.32.053-.067.147-.113.28-.14.133-.027.353-.027.66 0a.52.52 0 0 0 .16.02.12.12 0 0 0 .08-.08l1.62-1.62c.48-.48.603-.783.37-.91-.233-.127-.837-.017-1.81.33a22.557 22.557 0 0 0-1.53.59c-.233.1-.467.207-.7.32-.233.113-.497.243-.79.39-.347.16-.56.23-.64.21-.08-.02-.107-.103-.08-.25.08-.28.34-.513.78-.7.187-.08.43-.177.73-.29.3-.113.617-.23.95-.35a34.967 34.967 0 0 1 1.82-.6c.467-.133.823-.197 1.07-.19.247.007.483.077.71.21.227.12.367.227.42.32a3.07 3.07 0 0 0 .15-.08A180.662 180.662 0 0 1 87.07 8c.473-.24.923-.493 1.35-.76.2-.12.317-.25.35-.39.033-.14-.01-.263-.13-.37-.12-.107-.313-.19-.58-.25-.267-.06-.607-.077-1.02-.05-.307.027-.7.077-1.18.15s-.987.16-1.52.26-1.067.213-1.6.34a36.58 36.58 0 0 0-1.44.37c-.347.107-.743.223-1.19.35a170.5 170.5 0 0 0-1.32.38c-.433.127-.83.247-1.19.36-.36.113-.613.203-.76.27v.14c0 .107-.02.27-.06.49-.04.22-.097.453-.17.7-.073.247-.153.49-.24.73s-.17.433-.25.58c-.147.267-.253.4-.32.4s-.133-.193-.2-.58a1.694 1.694 0 0 1 .3-1.34c.2-.293.297-.65.29-1.07a3.281 3.281 0 0 0-.29-1.27c-.067-.147-.083-.25-.05-.31s.143.003.33.19c.107.12.203.26.29.42.087.16.163.32.23.48l.08-.04c.36-.187.92-.413 1.68-.68.76-.267 1.64-.54 2.64-.82.307-.093.63-.18.97-.26.34-.08.69-.16 1.05-.24.027-.053.067-.113.12-.18.053-.067.12-.14.2-.22.213-.213.443-.463.69-.75.247-.287.477-.567.69-.84.213-.273.4-.527.56-.76.16-.233.273-.41.34-.53.147-.307.22-.553.22-.74 0-.187-.087-.387-.26-.6-.147-.187-.213-.313-.2-.38.013-.067.16-.007.44.18.427.293.69.58.79.86.1.28.063.547-.11.8a5.39 5.39 0 0 1-.44.57c-.2.233-.423.487-.67.76a22.678 22.678 0 0 1-1.63 1.63.313.313 0 0 0-.08.06c.56-.12 1.1-.223 1.62-.31s.993-.15 1.42-.19c.44-.053.863-.037 1.27.05.407.087.83.263 1.27.53zm-4.48 9.12c.04-.413.027-.8-.04-1.16a1.99 1.99 0 0 1-.21.03c-.073.007-.15.017-.23.03-.387.04-.567.03-.54-.03.027-.06.207-.123.54-.19.067-.013.13-.027.19-.04.06-.013.123-.027.19-.04a1.784 1.784 0 0 0-.34-.76c-.413.053-.927.153-1.54.3-.733.173-1.413.363-2.04.57a12.86 12.86 0 0 0-1.52.59c-.787.387-1.197.747-1.23 1.08-.033.333.223.647.77.94a13.127 13.127 0 0 0 1.38.7c.24.107.507.213.8.32.293.107.647.22 1.06.34.32.093.58.16.78.2.2.04.37.04.51 0a.783.783 0 0 0 .38-.26c.113-.133.25-.32.41-.56.12-.173.217-.33.29-.47.073-.14.137-.287.19-.44.053-.153.093-.317.12-.49.027-.173.053-.393.08-.66zM86.04 13a10.099 10.099 0 0 0-.9 0c.107.2.193.44.26.72l.52-.11c.16-.033.293-.063.4-.09.373-.107.533-.21.48-.31-.053-.1-.307-.17-.76-.21zm21.549-1.94a.92.92 0 0 1 .23.31c.06.127.106.25.14.37a1.272 1.272 0 0 1 .03.58c-.027.067-.047.17-.06.31a8.403 8.403 0 0 0-.03 1c.006.18.016.35.03.51.026.28.046.577.06.89.013.313.016.62.01.92-.007.3-.02.583-.04.85s-.05.5-.09.7c-.067.347-.144.603-.23.77-.087.167-.184.267-.29.3-.107.033-.22.003-.34-.09a1.486 1.486 0 0 1-.34-.4 8.237 8.237 0 0 1-.42-.76 2.82 2.82 0 0 1-.18-.46c-.027 0-.107-.013-.24-.04a1.572 1.572 0 0 0-.39.01c-.154.02-.314.053-.48.1-.167.047-.334.1-.5.16-.167.06-.317.11-.45.15a5.832 5.832 0 0 1-.43.15c-.114.033-.21.063-.29.09.026.2-.004.317-.09.35-.087.033-.184-.017-.29-.15a3.533 3.533 0 0 1-.23-.35 2.49 2.49 0 0 1-.21-.53c-.107-.36-.194-.713-.26-1.06a7.926 7.926 0 0 1-.13-1.05 8.863 8.863 0 0 1 .01-1.11c.026-.387.073-.8.14-1.24.026-.227.09-.453.19-.68.1-.227.17-.367.21-.42.226-.307.386-.473.48-.5.093-.027.093.107 0 .4-.027.107-.07.257-.13.45s-.11.397-.15.61c.04-.053.086-.1.14-.14.4-.333.82-.597 1.26-.79.44-.193.846-.357 1.22-.49.493-.173.886-.247 1.18-.22.293.027.613.193.96.5zm-.3 6.1c.013-.067.023-.23.03-.49.006-.26.01-.567.01-.92 0-.353-.004-.733-.01-1.14l-.02-1.16a31.937 31.937 0 0 0-.03-.96 7.304 7.304 0 0 0-.04-.55c-.027-.213-.087-.377-.18-.49a.695.695 0 0 0-.33-.23 1.038 1.038 0 0 0-.41-.04c-.147.013-.287.04-.42.08-.36.093-.76.213-1.2.36-.44.147-.96.387-1.56.72-.16.08-.274.107-.34.08v.06c-.08.587-.1 1.22-.06 1.9h.02c.346-.16.736-.31 1.17-.45.433-.14.783-.25 1.05-.33a3.04 3.04 0 0 1 .48-.05c.186-.007.32.023.4.09.2.187.27.317.21.39-.06.073-.217.117-.47.13-.187.013-.4.043-.64.09s-.494.103-.76.17a16.618 16.618 0 0 0-1.4.5l-.02.02c.04.32.09.643.15.97.06.327.136.657.23.99.413-.147.77-.267 1.07-.36.3-.093.663-.18 1.09-.26.266-.053.48-.053.64 0 .16.053.273.18.34.38 0 .027.003.043.01.05.006.007.01.023.01.05l.09.09a.496.496 0 0 1 .09.13c.226.36.406.53.54.51.133-.02.22-.13.26-.33zm-3.44-6.56a19.565 19.565 0 0 0-1.46-.73 26.156 26.156 0 0 0-.72-.31 17.48 17.48 0 0 1-.56-.24c-.134.4-.274.757-.42 1.07-.147.313-.3.623-.46.93-.147.253-.32.477-.52.67-.2.193-.414.347-.64.46-.227.113-.457.19-.69.23-.234.04-.45.04-.65 0-.187-.04-.284-.1-.29-.18-.007-.08.11-.133.35-.16.426-.053.806-.2 1.14-.44.333-.24.646-.607.94-1.1.146-.253.293-.587.44-1a13.9 13.9 0 0 0 .4-1.36c-.067.027-.13.06-.19.1-.06.04-.124.073-.19.1-.52.28-.997.55-1.43.81-.434.26-.857.523-1.27.79a2.002 2.002 0 0 1-.84.33 1.764 1.764 0 0 1-.86-.07c-.32-.107-.467-.2-.44-.28.026-.08.113-.113.26-.1.293.027.593-.023.9-.15.306-.127.653-.297 1.04-.51.213-.12.46-.253.74-.4.28-.147.563-.297.85-.45.286-.153.57-.303.85-.45.28-.147.52-.273.72-.38.026-.133.05-.263.07-.39.02-.127.043-.257.07-.39.053-.267.063-.543.03-.83-.034-.287-.104-.503-.21-.65-.12-.16-.2-.3-.24-.42a3.85 3.85 0 0 0-.37.21 1.479 1.479 0 0 0-.31.27c-.227.227-.397.33-.51.31-.114-.02-.184-.123-.21-.31-.014-.133.026-.29.12-.47.093-.18.213-.35.36-.51.213-.24.313-.53.3-.87-.014-.34-.114-.697-.3-1.07-.147-.307-.157-.48-.03-.52.126-.04.316.133.57.52.146.227.24.453.28.68.04.227.04.447 0 .66-.134.507.333.513 1.4.02.426-.187.793-.287 1.1-.3.306-.013.553.027.74.12.186.08.313.167.38.26.066.093.006.193-.18.3-.174.107-.337.19-.49.25-.154.06-.337.163-.55.31-.214.147-.434.287-.66.42-.227.133-.434.253-.62.36.106.413.1.98-.02 1.7l.87-.42c.273-.133.516-.24.73-.32.293-.12.536-.18.73-.18.193 0 .39.053.59.16.253.147.353.267.3.36-.054.093-.227.147-.52.16-.36.027-.797.123-1.31.29-.514.167-1.017.363-1.51.59-.04.173-.08.337-.12.49-.04.153-.087.303-.14.45.6.04 1.16.17 1.68.39s.913.423 1.18.61c.2.133.34.26.42.38.08.12.11.213.09.28-.02.067-.09.1-.21.1s-.287-.06-.5-.18zm-2.88-5.68l.12.08c.04.027.086.053.14.08.106.08.2.213.28.4.24-.187.443-.35.61-.49.166-.14.33-.27.49-.39.213-.16.273-.25.18-.27-.094-.02-.427.077-1 .29-.16.053-.307.103-.44.15-.134.047-.26.097-.38.15zm9.74-.74c.6.467.733.913.4 1.34l-.74 1a9.537 9.537 0 0 0-.68 1.08c.413-.04.686.04.82.24.066.08.063.153-.01.22-.074.067-.21.107-.41.12a7.115 7.115 0 0 0-1.57.27c-.54.153-1.097.343-1.67.57 0 .04.003.077.01.11.006.033.01.063.01.09.04.24.02.377-.06.41-.08.033-.214-.063-.4-.29a1.745 1.745 0 0 1-.35-.66 4.581 4.581 0 0 1-.15-.7 7.521 7.521 0 0 0-.33-1.52 5.743 5.743 0 0 0-.51-1.14c-.16-.267-.234-.443-.22-.53.013-.087.146-.03.4.17.186.147.34.297.46.45.12.153.226.317.32.49l.02-.02a9.947 9.947 0 0 1 1.2-.9 12.933 12.933 0 0 1 1.56-.88c.386-.187.726-.277 1.02-.27.293.007.586.123.88.35zm-.36 1.18c.093-.173.12-.327.08-.46a.478.478 0 0 0-.27-.3c-.14-.067-.324-.093-.55-.08a1.927 1.927 0 0 0-.74.22c-.347.16-.637.297-.87.41l-.64.31c-.194.093-.37.183-.53.27-.16.087-.334.177-.52.27-.054.027-.12.053-.2.08.106.213.18.427.22.64.093.347.173.667.24.96.066.293.126.567.18.82.453-.16.843-.297 1.17-.41.326-.113.69-.223 1.09-.33a102.785 102.785 0 0 1 1.34-2.4zm14.968 1.12c-.267-.107-.403-.187-.41-.24-.007-.053.077-.113.25-.18.36-.107.7-.213 1.02-.32.32-.107.627-.207.92-.3l.08-.44c.027-.147.053-.307.08-.48a5.677 5.677 0 0 1-.91.29 2.415 2.415 0 0 1-.73.03c-.347-.04-.513-.087-.5-.14.013-.053.187-.127.52-.22.36-.107.677-.207.95-.3.273-.093.523-.187.75-.28.04-.347.07-.68.09-1 .02-.32.023-.6.01-.84-.013-.173-.073-.303-.18-.39a.948.948 0 0 0-.28-.17c-.28-.093-.43-.177-.45-.25-.02-.073.183-.097.61-.07.627.04.94.38.94 1.02 0 .187-.01.403-.03.65-.02.247-.043.503-.07.77.227-.093.41-.17.55-.23.14-.06.26-.103.36-.13.1-.027.19-.043.27-.05a.966.966 0 0 1 .24.01c.213.027.33.07.35.13.02.06-.01.11-.09.15-.16.067-.33.137-.51.21a20.45 20.45 0 0 0-1.23.55c-.027.173-.05.34-.07.5-.02.16-.043.32-.07.48.333-.107.587-.18.76-.22a.69.69 0 0 1 .33 0c.1.027.163.053.19.08.147.093.217.187.21.28-.007.093-.143.2-.41.32-.067.027-.193.09-.38.19s-.493.27-.92.51c0 .013-.013.06-.04.14-.027.12-.053.23-.08.33-.027.1-.053.183-.08.25.107-.027.21-.06.31-.1.1-.04.203-.073.31-.1a.669.669 0 0 1 .39-.07c.113.02.243.097.39.23.067.067.077.137.03.21-.047.073-.197.177-.45.31-.253.12-.49.23-.71.33-.22.1-.45.2-.69.3-.24.1-.503.207-.79.32-.287.113-.623.243-1.01.39-.293.12-.46.157-.5.11-.04-.047.06-.123.3-.23.44-.2.8-.367 1.08-.5s.513-.247.7-.34a5.5 5.5 0 0 0 .47-.26l.41-.26c-.32.08-.687.18-1.1.3-.413.12-.773.227-1.08.32-.293.093-.5.107-.62.04s-.147-.167-.08-.3c.08-.147.22-.24.42-.28.373-.227.69-.417.95-.57.26-.153.503-.303.73-.45a.355.355 0 0 0 .03-.1.308.308 0 0 1 .05-.12.733.733 0 0 0 .03-.14.74.74 0 0 1 .05-.18 7.705 7.705 0 0 0-.84.36 2.288 2.288 0 0 1-.44.15.658.658 0 0 1-.38-.01zm1.5.8c-.053-.08-.073-.227-.06-.44-.187.107-.383.213-.59.32-.207.107-.43.233-.67.38a6.44 6.44 0 0 0 .7-.11c.213-.047.42-.097.62-.15zm1.5-1.74c-.12.027-.23.06-.33.1-.1.04-.197.073-.29.1-.027.133-.04.213-.04.24.107-.067.213-.137.32-.21l.34-.23zm-8.58 2.24c-.307-.093-.473-.21-.5-.35-.027-.14.067-.203.28-.19.227.027.553-.027.98-.16.427-.133 1-.327 1.72-.58.027-.213.057-.433.09-.66.033-.227.063-.453.09-.68-.493.173-.96.297-1.4.37-.44.073-.813.077-1.12.01-.333-.067-.5-.137-.5-.21 0-.073.173-.123.52-.15a7.247 7.247 0 0 0 1.23-.2 9.397 9.397 0 0 0 1.33-.44 63.875 63.875 0 0 0 .12-1.58.551.551 0 0 0-.15-.44.916.916 0 0 0-.33-.24c-.4-.147-.55-.263-.45-.35.1-.087.363-.083.79.01.28.067.477.2.59.4.113.2.163.527.15.98 0 .267-.02.58-.06.94.4-.187.677-.297.83-.33.153-.033.31-.037.47-.01.213.027.333.067.36.12.027.053 0 .1-.08.14-.293.12-.6.25-.92.39-.32.14-.56.243-.72.31a33.8 33.8 0 0 1-.09.7c-.033.24-.063.473-.09.7a6.283 6.283 0 0 1 .48-.16.544.544 0 0 1 .41 0c.153.053.263.093.33.12.147.067.213.13.2.19-.013.06-.12.17-.32.33-.133.107-.3.25-.5.43s-.493.463-.88.85l-.07.34c-.02.093-.043.173-.07.24l-.07.28c-.02.08-.043.153-.07.22.28-.133.51-.25.69-.35.18-.1.33-.193.45-.28.12-.087.223-.17.31-.25.087-.08.177-.167.27-.26.253-.267.403-.387.45-.36.047.027-.003.153-.15.38a2.396 2.396 0 0 1-.48.57 6.778 6.778 0 0 1-.73.57 10.033 10.033 0 0 1-1.79.96c-.387.147-.707.26-.96.34-.253.08-.457.127-.61.14-.153.013-.267-.01-.34-.07a.572.572 0 0 1-.17-.27c-.027-.067.007-.127.1-.18.093-.053.3-.12.62-.2.133-.027.353-.143.66-.35.307-.207.713-.563 1.22-1.07.013-.013.02-.033.02-.06.04-.107.08-.27.12-.49.04-.22.087-.483.14-.79a17.702 17.702 0 0 0-1.42.56 2.51 2.51 0 0 1-.52.14c-.173.027-.327.02-.46-.02zm2.016 1.085a2.376 2.376 0 0 1-.216.225c-.08.073-.16.15-.24.23-.08.08-.107.15-.08.21.027.06.093.063.2.01a1.66 1.66 0 0 0 .19-.09 1.66 1.66 0 0 1 .19-.09c-.067-.107-.08-.273-.04-.5l-.004.005zm1.664-2.205c-.187.053-.393.12-.62.2-.027.12-.047.24-.06.36-.013.12-.033.233-.06.34l.36-.44c.12-.147.247-.3.38-.46zm3.54 6.06c-.467.027-.94.07-1.42.13s-.96.133-1.44.22-.943.187-1.39.3c-.447.113-.87.23-1.27.35-.387.12-.65.163-.79.13a.647.647 0 0 1-.37-.27c-.093-.12-.113-.217-.06-.29.053-.073.22-.117.5-.13.12 0 .393-.037.82-.11.427-.073.897-.16 1.41-.26.513-.1 1.02-.2 1.52-.3.5-.1.883-.183 1.15-.25.36-.093.65-.123.87-.09.22.033.423.103.61.21.027-.08.06-.17.1-.27.04-.1.093-.203.16-.31.08-.16.143-.29.19-.39a4.41 4.41 0 0 0 .21-.53c.027-.08.06-.173.1-.28.147-.4.147-.673 0-.82-.147-.147-.54-.187-1.18-.12-.253.027-.48.053-.68.08-.2.027-.413.063-.64.11-.227.047-.483.107-.77.18a21.93 21.93 0 0 0-1.07.31c-.36.107-.643.187-.85.24a2.713 2.713 0 0 1-.48.09c-.113.007-.19-.017-.23-.07a.682.682 0 0 1-.1-.24c-.027-.12 0-.2.08-.24.08-.04.273-.093.58-.16 1.373-.36 2.467-.607 3.28-.74.813-.133 1.38-.167 1.7-.1.613.12.983.307 1.11.56.127.253.13.553.01.9-.08.267-.177.517-.29.75-.113.233-.257.523-.43.87-.16.333-.303.547-.43.64a.512.512 0 0 1-.41.1.242.242 0 0 1-.11-.05c-.02-.02-.017-.07.01-.15zm-5.84-.84c-.16-.107-.237-.187-.23-.24.007-.053.13-.073.37-.06.28.027.553.017.82-.03.267-.047.5-.097.7-.15.28-.067.513-.123.7-.17.187-.047.353-.09.5-.13.147-.04.29-.083.43-.13l.45-.15c.333-.107.593-.16.78-.16.187 0 .36.033.52.1.2.067.293.153.28.26-.013.107-.113.173-.3.2-.333.04-.637.08-.91.12-.273.04-.537.087-.79.14-.253.053-.507.11-.76.17-.253.06-.527.137-.82.23a5.93 5.93 0 0 1-.94.25c-.227.033-.493-.05-.8-.25zm-1.5 2.28c.04-.187.11-.263.21-.23.1.033.143.143.13.33-.027.28-.05.543-.07.79-.02.247-.043.497-.07.75a5.981 5.981 0 0 1-.27 1.17 7.497 7.497 0 0 1-.33.79c-.12.227-.213.343-.28.35-.067.007-.133-.123-.2-.39a2.957 2.957 0 0 1-.06-.9c.027-.293.093-.513.2-.66a4.36 4.36 0 0 0 .24-.38 2.61 2.61 0 0 0 .18-.41c.053-.153.103-.323.15-.51s.103-.42.17-.7zm10.24 3.06c.467.267.687.483.66.65-.027.167-.247.303-.66.41-.373.107-.733.19-1.08.25-.347.06-.697.097-1.05.11a9.792 9.792 0 0 1-2.27-.18c-1-.16-1.813-.52-2.44-1.08s-1.053-1.287-1.28-2.18a2.48 2.48 0 0 0-.15-.41 1.058 1.058 0 0 0-.13-.23c-.173-.133-.223-.223-.15-.27.073-.047.223-.057.45-.03.28.04.5.36.66.96a3.727 3.727 0 0 0 1.07 1.74c.527.493 1.33.82 2.41.98.387.053.773.087 1.16.1.387.013.773-.007 1.16-.06.347-.053.61-.1.79-.14.18-.04.287-.09.32-.15.033-.06-.003-.133-.11-.22a8 8 0 0 0-.48-.35c-.28-.187-.58-.4-.9-.64-.32-.24-.567-.433-.74-.58-.4-.307-.587-.497-.56-.57.027-.073.32.07.88.43.307.2.573.37.8.51.227.14.43.267.61.38.18.113.35.213.51.3.16.087.333.177.52.27zm2.52-2.44c.027.147.037.273.03.38a.353.353 0 0 1-.13.26c-.08.067-.207.113-.38.14a3.022 3.022 0 0 1-.7 0c-.107 0-.237-.013-.39-.04a28.075 28.075 0 0 1-.49-.09 6.31 6.31 0 0 1-.51-.12c-.167-.047-.317-.09-.45-.13-.227-.08-.323-.143-.29-.19.033-.047.143-.057.33-.03.373.067.707.1 1 .1.293 0 .553-.013.78-.04.613-.053.647-.287.1-.7-.267-.2-.593-.317-.98-.35-.387-.033-.913.05-1.58.25-.52.16-.963.31-1.33.45-.367.14-.677.277-.93.41-.253.133-.46.267-.62.4-.16.133-.293.273-.4.42-.12.147-.233.21-.34.19-.107-.02-.22-.203-.34-.55a2.555 2.555 0 0 1-.14-.72 5.248 5.248 0 0 1 .06-.96c.013-.093.047-.147.1-.16.053-.013.113.033.18.14.08.12.14.243.18.37.04.127.067.29.08.49.013.227.077.347.19.36.113.013.397-.073.85-.26a24.706 24.706 0 0 1 2.34-.78c.28-.08.587-.16.92-.24.213-.04.397-.073.55-.1.153-.027.297-.04.43-.04s.267.017.4.05.293.09.48.17c.253.107.477.247.67.42.193.173.303.34.33.5z" fill="#000"/><path d="M3.5 6.5L.529 13.928M143.5 6.5l-2.971 7.428M284.5 6.5l-2.971 7.428" stroke="#EB1A34" stroke-linecap="square"/><path d="M167.714 6.68c.054.08.094.167.12.26.027.093.037.203.03.33-.006.127-.03.29-.07.49-.04.2-.093.453-.16.76a91.02 91.02 0 0 1-.7 2.84c-.2.747-.39 1.38-.57 1.9-.18.52-.363.973-.55 1.36-.186.387-.406.787-.66 1.2-.213.333-.423.517-.63.55-.206.033-.383-.143-.53-.53a24.212 24.212 0 0 0-.65-1.56 26.629 26.629 0 0 1-.55-1.26 7.871 7.871 0 0 1-.17-.4 3.709 3.709 0 0 1-.11-.32c-.52 1.16-1.05 2.16-1.59 3-.54.84-1.143 1.633-1.81 2.38-.173.187-.29.267-.35.24-.06-.027.01-.187.21-.48.494-.733.927-1.417 1.3-2.05.374-.633.717-1.273 1.03-1.92a32.3 32.3 0 0 0 .9-2.04c.287-.713.597-1.517.93-2.41.147-.4.28-.797.4-1.19.12-.393.234-.777.34-1.15-.12.04-.233.08-.34.12-.106.04-.213.087-.32.14a7.454 7.454 0 0 1-1.42.52 1.64 1.64 0 0 0-.71.26 1.465 1.465 0 0 0-.45.48c-.12.2-.22.293-.3.28-.08-.013-.06-.133.06-.36.094-.173.19-.33.29-.47.1-.14.22-.277.36-.41.14-.133.314-.257.52-.37.207-.113.464-.223.77-.33l.9-.3c.28-.093.554-.173.82-.24.067-.307.127-.59.18-.85.054-.26.1-.503.14-.73.04-.293.027-.507-.04-.64-.066-.133-.156-.193-.27-.18-.113.013-.23.09-.35.23-.12.14-.213.33-.28.57-.053.187-.13.28-.23.28s-.13-.093-.09-.28c.08-.333.16-.603.24-.81.08-.207.17-.363.27-.47a.645.645 0 0 1 .32-.2c.114-.027.23-.033.35-.02.227.027.427.107.6.24.174.133.24.387.2.76-.026.307-.07.62-.13.94-.06.32-.13.653-.21 1 .454-.093.867-.12 1.24-.08.814.093 1.387.4 1.72.92zm-.66.94a.953.953 0 0 0-.05-.57 1.105 1.105 0 0 0-.32-.42 1.353 1.353 0 0 0-.51-.25c-.2-.053-.42-.067-.66-.04a5.57 5.57 0 0 0-.45.06l-.47.08a22.393 22.393 0 0 1-.78 2.54 45.2 45.2 0 0 1-.59 1.6c-.193.493-.39.967-.59 1.42.04.053.08.113.12.18.04.067.094.147.16.24.214.36.4.707.56 1.04.16.333.36.687.6 1.06.267.427.474.597.62.51.147-.087.36-.45.64-1.09a22.508 22.508 0 0 0 1.08-3.22c.134-.52.25-1.037.35-1.55.1-.513.197-1.043.29-1.59zm-7.58 4.34c0 .147-.043.28-.13.4-.086.12-.296.233-.63.34-.04.56-.113.927-.22 1.1-.08.12-.166.11-.26-.03-.093-.14-.146-.403-.16-.79v-.08l-.19.04c-.06.013-.13.027-.21.04-.32.08-.68.19-1.08.33s-.796.29-1.19.45a15.251 15.251 0 0 0-1.79.86 4.306 4.306 0 0 1-.54.28c-.133.053-.233.07-.3.05a.186.186 0 0 1-.13-.14 1.041 1.041 0 0 1-.03-.27c0-.187.027-.337.08-.45.054-.113.207-.223.46-.33.094-.027.247-.15.46-.37.214-.22.52-.597.92-1.13a8.104 8.104 0 0 1-.08-.42c-.026-.16-.053-.36-.08-.6a9.222 9.222 0 0 1-.03-.49 16.07 16.07 0 0 0-.03-.55 1.438 1.438 0 0 1-.56-.18c-.106-.067-.15-.123-.13-.17.02-.047.164-.097.43-.15.067 0 .154-.013.26-.04.014-.507.034-1.007.06-1.5.027-.493.067-.893.12-1.2 0-.08.007-.14.02-.18a5.01 5.01 0 0 0-.38.17c-.12.06-.253.123-.4.19-.293.133-.453.16-.48.08-.026-.08.06-.193.26-.34.187-.147.367-.277.54-.39.174-.113.34-.223.5-.33a4.65 4.65 0 0 0-.02-.76l-.08-.68c-.04-.307-.013-.463.08-.47.094-.007.18.13.26.41.067.173.117.363.15.57.034.207.064.423.09.65.227-.12.43-.217.61-.29.18-.073.337-.13.47-.17.227-.08.427-.09.6-.03.174.06.314.143.42.25.107.107.157.217.15.33-.006.113-.096.21-.27.29-.186.093-.46.26-.82.5-.36.24-.733.52-1.12.84h-.02v.24c-.026.267-.046.533-.06.8l-.04.8a10.45 10.45 0 0 0 1.2-.56c.187-.093.344-.16.47-.2.127-.04.304-.013.53.08.214.08.334.18.36.3.027.12-.086.3-.34.54a5.097 5.097 0 0 0-.66.72c-.226.293-.426.56-.6.8l-.37.49a22.25 22.25 0 0 0-.39.53c.04.267.094.513.16.74.04.147.06.253.06.32l1.37-.47c.487-.167.93-.323 1.33-.47 0-.48.004-1.017.01-1.61.007-.593.01-1.2.01-1.82V5.32c0-.573-.003-1.033-.01-1.38a4.127 4.127 0 0 0-.08-.82c-.046-.2-.113-.35-.2-.45-.086-.1-.21-.19-.37-.27-.2-.093-.363-.15-.49-.17a.593.593 0 0 0-.33.03.73.73 0 0 0-.27.22 9.298 9.298 0 0 1-.33.38 4 4 0 0 1-.61.57c-.206.153-.39.263-.55.33-.306.093-.47.117-.49.07-.02-.047.064-.163.25-.35.254-.267.48-.533.68-.8.2-.267.387-.473.56-.62.174-.147.394-.257.66-.33.267-.073.64-.003 1.12.21.414.187.734.437.96.75.227.313.314.59.26.83-.053.253-.09.507-.11.76-.02.253-.03.593-.03 1.02 0 .36.004.82.01 1.38.007.56.01 1.147.01 1.76s.004 1.22.01 1.82c.007.6.01 1.12.01 1.56a.14.14 0 0 1-.01.06.14.14 0 0 0-.01.06c.107-.093.2-.25.28-.47.08-.22.16-.577.24-1.07.067-.373.13-.597.19-.67.06-.073.077.143.05.65l-.03.63c-.006.153-.01.283-.01.39 0 .107.004.2.01.28.007.08.01.173.01.28zM156.054 6c-.133.067-.28.143-.44.23-.16.087-.34.177-.54.27a8 8 0 0 1 0 .8c.36-.32.63-.577.81-.77.18-.193.3-.337.36-.43.06-.093.067-.147.02-.16-.046-.013-.116.007-.21.06zm.2 3.8c.067-.12.117-.217.15-.29.034-.073.03-.113-.01-.12-.04-.007-.126.02-.26.08-.133.06-.34.163-.62.31a4.306 4.306 0 0 1-.54.28c0 .267.01.527.03.78.02.253.044.493.07.72.294-.4.524-.723.69-.97.167-.247.33-.51.49-.79zm-1.58 2.94c-.32.427-.6.76-.84 1 .134-.053.3-.113.5-.18.2-.067.427-.147.68-.24a.983.983 0 0 1-.2-.3 2.83 2.83 0 0 1-.07-.15.806.806 0 0 0-.07-.13zm24.409-7c.133.08.183.187.15.32s-.13.233-.29.3c-.2.093-.39.183-.57.27-.18.087-.357.17-.53.25l-.04.36-.04.38c-.027.293-.053.613-.08.96-.027.347-.047.707-.06 1.08.08-.093.163-.187.25-.28.087-.093.17-.193.25-.3.267-.293.417-.383.45-.27.033.113-.063.317-.29.61-.133.16-.257.313-.37.46-.113.147-.223.287-.33.42-.027.64-.04 1.25-.04 1.83 0 .58.013 1.043.04 1.39.053.987.073 1.77.06 2.35a18.68 18.68 0 0 1-.08 1.45c-.027.28-.127.42-.3.42s-.34-.127-.5-.38c-.267-.4-.493-.743-.68-1.03a58.302 58.302 0 0 1-.5-.78 19.505 19.505 0 0 0-.44-.67c-.147-.213-.313-.453-.5-.72a.991.991 0 0 1-.17-.28c-.02-.067-.017-.11.01-.13.027-.02.067-.013.12.02.053.033.113.09.18.17.293.36.563.683.81.97.247.287.543.637.89 1.05.187.24.327.33.42.27.093-.06.133-.35.12-.87a45.346 45.346 0 0 1-.03-2.15c.007-.74.023-1.49.05-2.25-.307.347-.617.673-.93.98-.313.307-.69.66-1.13 1.06-.28.267-.48.407-.6.42-.12.013-.193-.053-.22-.2a.69.69 0 0 1-.03-.25.5.5 0 0 1 .09-.23c.053-.08.14-.17.26-.27s.28-.223.48-.37a19.857 19.857 0 0 0 2.1-1.84l.08-1.55c.027-.513.06-1.01.1-1.49-.307.173-.583.34-.83.5-.247.16-.483.32-.71.48-.387.267-.703.383-.95.35-.247-.033-.503-.197-.77-.49-.2-.227-.133-.307.2-.24.173.04.353.057.54.05.187-.007.447-.097.78-.27a23.67 23.67 0 0 0 1.8-1.02c.053-.56.113-1.09.18-1.59.067-.5.14-.963.22-1.39.04-.253.007-.49-.1-.71-.107-.22-.307-.463-.6-.73-.187-.173-.257-.307-.21-.4.047-.093.237-.047.57.14.32.187.59.423.81.71.22.287.297.61.23.97-.08.4-.16.817-.24 1.25-.08.433-.153.883-.22 1.35a.285.285 0 0 1 .06-.05.157.157 0 0 0 .04-.03c.307-.2.53-.327.67-.38.14-.053.263-.047.37.02zm9.86 9.18c.08.187.05.313-.09.38s-.497.02-1.07-.14c-.133-.04-.357-.05-.67-.03-.313.02-.66.053-1.04.1-.38.047-.77.113-1.17.2-.4.087-.747.177-1.04.27-.4.133-.69.157-.87.07a.516.516 0 0 1-.31-.41c-.027-.147 0-.257.08-.33.08-.073.193-.137.34-.19.213-.067.4-.123.56-.17.16-.047.387-.17.68-.37.2-.147.453-.34.76-.58v-.04a15.499 15.499 0 0 0 .04-1.14c-.32.107-.62.21-.9.31s-.527.197-.74.29c-.253.107-.433.127-.54.06-.107-.067-.173-.213-.2-.44-.027-.147.003-.263.09-.35.087-.087.23-.163.43-.23.133-.053.28-.087.44-.1a.903.903 0 0 0 .46-.18 15.23 15.23 0 0 0 1-.84c.013-.227.02-.457.02-.69 0-.233.007-.477.02-.73-.173.08-.38.2-.62.36-.2.133-.437.197-.71.19a1.572 1.572 0 0 1-.71-.17c-.213-.107-.303-.193-.27-.26.033-.067.237-.113.61-.14.093-.013.313-.07.66-.17.347-.1.7-.223 1.06-.37v-.79c0-.273.007-.557.02-.85v-.12c-.067.027-.13.05-.19.07a.63.63 0 0 0-.15.07 2.25 2.25 0 0 1-.74.2 1.678 1.678 0 0 1-.8-.12c-.187-.067-.257-.123-.21-.17.047-.047.17-.11.37-.19.08-.04.257-.097.53-.17.273-.073.583-.15.93-.23a.902.902 0 0 1 .06-.19c.027-.06.06-.13.1-.21a37.068 37.068 0 0 1 .86-1.58c.147-.253.173-.417.08-.49-.093-.073-.267-.117-.52-.13a1.726 1.726 0 0 1-.78-.2c-.2-.107-.28-.19-.24-.25.04-.06.16-.09.36-.09.293 0 .56.01.8.03.24.02.493.043.76.07a.64.64 0 0 1 .51.35c.113.207.057.443-.17.71-.147.173-.31.403-.49.69-.18.287-.343.543-.49.77l-.15.19c-.047.06-.09.123-.13.19.333-.093.64-.173.92-.24s.493-.113.64-.14c.307-.067.523-.093.65-.08.127.013.25.067.37.16s.113.19-.02.29c-.133.1-.34.163-.62.19-.173.027-.42.07-.74.13s-.633.13-.94.21c.013.253.013.72 0 1.4v.3c.2-.093.353-.173.46-.24.36-.227.627-.357.8-.39.173-.033.333.023.48.17.2.187.3.347.3.48s-.06.24-.18.32a4.828 4.828 0 0 0-.5.41c-.093.087-.2.19-.32.31s-.267.26-.44.42a6.593 6.593 0 0 1-.66.58v.48c0 .16-.007.333-.02.52a10.976 10.976 0 0 0 .88-.28c.787-.253 1.247-.207 1.38.14.053.16.04.303-.04.43s-.273.277-.58.45c-.133.067-.35.197-.65.39-.3.193-.643.417-1.03.67 0 .493-.02.827-.06 1 .32-.067.617-.117.89-.15.273-.033.577-.063.91-.09.373-.04.7-.017.98.07.28.087.453.21.52.37zm-1.88-6.02c-.24.067-.46.133-.66.2s-.4.147-.6.24c0 .187-.003.37-.01.55-.007.18-.01.363-.01.55.227-.24.443-.49.65-.75l.63-.79zm-3.42 3.62c.267-.067.523-.137.77-.21.247-.073.497-.143.75-.21v-.36c0-.12.007-.233.02-.34a21.3 21.3 0 0 1-.74.55l-.8.57zm2.1-.16c0 .147-.003.293-.01.44-.007.147-.01.293-.01.44.253-.2.513-.403.78-.61.267-.207.553-.417.86-.63a9.14 9.14 0 0 0-.81.16c-.273.067-.543.133-.81.2zm-2.1 2.76c.307-.067.58-.123.82-.17.24-.047.467-.09.68-.13a2.058 2.058 0 0 1-.03-.27 7.57 7.57 0 0 1-.01-.43 74.19 74.19 0 0 0-1.46 1zm-2.4-8.98c.253.2.437.437.55.71.113.273.163.57.15.89-.013.627-.037 1.393-.07 2.3-.033.907-.07 1.86-.11 2.86-.04 1-.077 1.987-.11 2.96l-.09 2.6c-.013.413-.05.637-.11.67-.06.033-.17-.123-.33-.47a4.498 4.498 0 0 1-.34-.95 2.046 2.046 0 0 1 .02-.85c.04-.213.09-.643.15-1.29s.117-1.393.17-2.24c.053-.847.1-1.743.14-2.69.04-.947.067-1.827.08-2.64.013-.44-.017-.767-.09-.98a1.287 1.287 0 0 0-.29-.5 12.21 12.21 0 0 1-1.14 1.42c-.187.2-.333.297-.44.29-.107-.007-.167-.063-.18-.17-.013-.067.01-.177.07-.33.06-.153.183-.323.37-.51.227-.253.433-.5.62-.74s.38-.503.58-.79c.2-.287.41-.62.63-1 .22-.38.47-.83.75-1.35.147-.253.18-.493.1-.72-.08-.227-.333-.547-.76-.96-.12-.107-.137-.173-.05-.2.087-.027.263.033.53.18.44.227.737.487.89.78.153.293.117.653-.11 1.08a32.656 32.656 0 0 1-1.58 2.64zm15.128-.58c-.28.067-.44.067-.48 0-.04-.067.074-.147.34-.24a163.975 163.975 0 0 0 2.39-.89c.367-.14.737-.287 1.11-.44.374-.153.76-.317 1.16-.49a.446.446 0 0 0 .25-.29c.034-.127-.05-.35-.25-.67-.12-.187-.153-.323-.1-.41.054-.087.14-.077.26.03.227.213.404.423.53.63.127.207.23.45.31.73.067.213.05.36-.05.44-.1.08-.256.127-.47.14-.213.013-.426.05-.64.11-.213.06-.453.137-.72.23-.36.147-.69.273-.99.38-.3.107-.593.2-.88.28-.286.08-.573.157-.86.23l-.91.23zm6.9 4.34a4.86 4.86 0 0 1 .51-.72c.194-.227.45-.54.77-.94.094-.107.074-.207-.06-.3a3.237 3.237 0 0 0-.58-.3 2.782 2.782 0 0 1-.4-.2c-.106-.067-.186-.187-.24-.36-.04-.16-.026-.277.04-.35a.645.645 0 0 1 .28-.17c.12-.053.257-.18.41-.38.154-.2.357-.533.61-1 .107-.173.157-.3.15-.38-.006-.08-.083-.16-.23-.24-.266-.147-.483-.27-.65-.37-.166-.1-.323-.23-.47-.39-.08-.107-.096-.187-.05-.24.047-.053.157-.067.33-.04.2.04.464.133.79.28.327.147.657.34.99.58.174.133.264.257.27.37.007.113-.083.243-.27.39-.146.12-.343.31-.59.57-.246.26-.576.677-.99 1.25.267.12.507.237.72.35.214.113.414.25.6.41.094.08.137.187.13.32-.006.133-.116.327-.33.58-.253.307-.49.557-.71.75-.22.193-.463.417-.73.67-.24.213-.383.3-.43.26-.046-.04-.003-.173.13-.4zm7.42-1.92c.32.107.447.227.38.36-.066.133-.333.213-.8.24-.36.027-.716.08-1.07.16-.353.08-.703.18-1.05.3.014.2.02.383.02.55v2.89c0 .533-.003 1.107-.01 1.72a7536.81 7536.81 0 0 1-.04 3.55 72.955 72.955 0 0 1-.03 1.45 2.052 2.052 0 0 1-.09.54c-.046.133-.1.207-.16.22-.06.013-.113-.037-.16-.15-.046-.113-.076-.303-.09-.57-.026-.653-.05-1.4-.07-2.24l-.06-2.52c-.02-.84-.033-1.64-.04-2.4-.006-.76-.01-1.387-.01-1.88.014-.133.02-.27.02-.41v-.43c-.76.347-1.436.76-2.03 1.24a16.23 16.23 0 0 0-1.45 1.3c-.346.347-.593.56-.74.64-.146.08-.333.08-.56 0a1.351 1.351 0 0 1-.54-.33 2.004 2.004 0 0 1-.34-.49c-.08-.173-.093-.273-.04-.3.054-.027.127.007.22.1.227.24.444.363.65.37.207.007.404-.077.59-.25.214-.213.417-.4.61-.56.194-.16.4-.32.62-.48.22-.16.467-.333.74-.52.274-.187.604-.413.99-.68.187-.12.39-.237.61-.35.22-.113.444-.223.67-.33v-1.4c0-.467.004-.903.01-1.31.007-.407.017-.763.03-1.07.014-.307.027-.533.04-.68.04-.84.03-1.48-.03-1.92-.06-.44-.183-.767-.37-.98-.146-.16-.216-.277-.21-.35.007-.073.084-.137.23-.19.067-.027.154-.02.26.02.107.04.2.087.28.14.12.08.22.16.3.24.08.08.144.177.19.29.047.113.077.257.09.43.014.173.014.4 0 .68-.026.347-.046.757-.06 1.23a124.056 124.056 0 0 0-.04 3.08v1.51c.56-.2 1.074-.343 1.54-.43.467-.087.8-.097 1-.03zm-9.38 2.86c-.306.293-.603.57-.89.83l-.87.79v1.1c0 .293.024.597.07.91.047.313.1.61.16.89s.12.523.18.73c.06.207.11.35.15.43.174.347.23.557.17.63-.06.073-.243-.05-.55-.37a1.14 1.14 0 0 1-.26-.36c-.08-.16-.15-.337-.21-.53a8.527 8.527 0 0 1-.16-.59c-.046-.2-.083-.373-.11-.52-.026-.107-.043-.317-.05-.63-.006-.313-.01-.703-.01-1.17-.573.493-1.146.947-1.72 1.36-.226.16-.376.22-.45.18-.073-.04-.103-.253-.09-.64 0-.187.03-.343.09-.47a.943.943 0 0 1 .31-.35c.32-.227.644-.553.97-.98.327-.427.63-.873.91-1.34l.04-1.23c.014-.42.034-.85.06-1.29-.466.253-.906.497-1.32.73-.413.233-.74.43-.98.59-.2.12-.373.21-.52.27a.977.977 0 0 1-.42.08.87.87 0 0 1-.42-.15 3.769 3.769 0 0 1-.52-.42c-.173-.147-.23-.25-.17-.31s.15-.043.27.05c.16.12.347.173.56.16.214-.013.494-.093.84-.24.067-.027.197-.087.39-.18.194-.093.417-.207.67-.34l.82-.43c.294-.153.574-.303.84-.45.014-.187.024-.373.03-.56.007-.187.017-.373.03-.56 0-.187.04-.403.12-.65.08-.247.234-.397.46-.45.08-.013.147.047.2.18.054.133.054.413 0 .84a2.716 2.716 0 0 0-.05.39c-.006.127-.016.263-.03.41a8.18 8.18 0 0 0 .31-.18l.23-.14c.267-.147.484-.243.65-.29a.82.82 0 0 1 .41-.03c.147.053.23.13.25.23.02.1-.103.203-.37.31a39.97 39.97 0 0 1-.72.35c-.266.127-.546.263-.84.41-.026.28-.046.553-.06.82-.013.267-.033.533-.06.8.134-.227.24-.383.32-.47.08-.087.174-.117.28-.09.107.027.154.11.14.25-.013.14-.12.383-.32.73-.066.133-.226.4-.48.8-.013.173-.02.34-.02.5 0 .16-.006.327-.02.5.307-.267.584-.517.83-.75.247-.233.437-.41.57-.53.427-.413.747-.87.96-1.37.214-.5.32-1.15.32-1.95 0-.387.027-.57.08-.55.054.02.094.197.12.53.067.92 0 1.683-.2 2.29s-.506 1.103-.92 1.49zm-2.38.76c-.173.227-.36.467-.56.72-.2.253-.42.513-.66.78.2-.147.404-.293.61-.44.207-.147.41-.3.61-.46v-.6zm21.949-5.58a4.52 4.52 0 0 1-.8-1.34 1.4 1.4 0 0 1-.09-.35 9.009 9.009 0 0 1-.08-.8.907.907 0 0 1 .01-.25c.027-.16.073-.24.14-.24.067 0 .113.133.14.4a9.563 9.563 0 0 0 .18.57 4.851 4.851 0 0 0 .24.57c.107.227.2.39.28.49.08.1.153.13.22.09.067-.04.14-.163.22-.37a9.01 9.01 0 0 0 .28-.93c.133-.453.227-.677.28-.67.053.007.04.19-.04.55-.107.4-.163.743-.17 1.03-.007.287.01.563.05.83.067.453.01.717-.17.79-.18.073-.41-.05-.69-.37zm2.84-1.56a2.553 2.553 0 0 1-.15-.32 5.2 5.2 0 0 1-.17-.49 8.04 8.04 0 0 1-.14-.54c-.04-.18-.067-.33-.08-.45-.027-.36.01-.56.11-.6.1-.04.203.093.31.4.093.267.18.463.26.59.08.127.173.19.28.19.107 0 .237-.063.39-.19a9.81 9.81 0 0 0 .63-.59c.16-.147.25-.207.27-.18.02.027-.063.167-.25.42-.387.507-.62.89-.7 1.15-.08.26-.093.477-.04.65.04.147.05.267.03.36-.02.093-.06.143-.12.15-.06.007-.143-.03-.25-.11-.107-.08-.233-.227-.38-.44zm7.64 1.66c.333.2.503.417.51.65.007.233-.123.43-.39.59-.227.133-.49.277-.79.43-.3.153-.613.307-.94.46-.327.153-.657.297-.99.43-.333.133-.647.247-.94.34-.053.013-.1.027-.14.04l-.12.04a.364.364 0 0 1-.18.22c-.093.067-.19.14-.29.22-.1.08-.237.193-.41.34-.08.08-.193.187-.34.32-.147.133-.3.28-.46.44l-.48.48c-.16.16-.3.293-.42.4l-.02.02c.827.16 1.44.48 1.84.96.173-.013.343-.023.51-.03.167-.007.343-.017.53-.03a2.9 2.9 0 0 1 .92.11c.307.087.533.203.68.35.147.147.17.3.07.46-.1.16-.27.267-.51.32-.56.133-1.073.24-1.54.32.08.347.107.773.08 1.28 0 .24-.033.5-.1.78a5.132 5.132 0 0 1-.68 1.59 3.6 3.6 0 0 1-.56.67c-.307.28-.603.443-.89.49-.287.047-.617-.003-.99-.15-.907-.333-1.64-.647-2.2-.94-.56-.293-1.013-.593-1.36-.9-.387-.32-.66-.607-.82-.86-.16-.253-.233-.493-.22-.72a.912.912 0 0 1 .25-.54c.153-.173.403-.34.75-.5.987-.453 1.893-.81 2.72-1.07.827-.26 1.687-.443 2.58-.55a.795.795 0 0 1-.12-.1.795.795 0 0 0-.12-.1c-.173-.12-.45-.227-.83-.32a4.284 4.284 0 0 0-1.17-.12c-.32.013-.5-.007-.54-.06-.04-.053.007-.16.14-.32.053-.067.147-.113.28-.14.133-.027.353-.027.66 0a.52.52 0 0 0 .16.02.12.12 0 0 0 .08-.08l1.62-1.62c.48-.48.603-.783.37-.91-.233-.127-.837-.017-1.81.33a22.557 22.557 0 0 0-1.53.59c-.233.1-.467.207-.7.32-.233.113-.497.243-.79.39-.347.16-.56.23-.64.21-.08-.02-.107-.103-.08-.25.08-.28.34-.513.78-.7.187-.08.43-.177.73-.29.3-.113.617-.23.95-.35a34.968 34.968 0 0 1 1.82-.6c.467-.133.823-.197 1.07-.19.247.007.483.077.71.21.227.12.367.227.42.32.053-.027.103-.053.15-.08a180.664 180.664 0 0 1 1.44-.74c.473-.24.923-.493 1.35-.76.2-.12.317-.25.35-.39.033-.14-.01-.263-.13-.37-.12-.107-.313-.19-.58-.25-.267-.06-.607-.077-1.02-.05-.307.027-.7.077-1.18.15s-.987.16-1.52.26-1.067.213-1.6.34a36.58 36.58 0 0 0-1.44.37c-.347.107-.743.223-1.19.35-.447.127-.887.253-1.32.38-.433.127-.83.247-1.19.36-.36.113-.613.203-.76.27v.14c0 .107-.02.27-.06.49-.04.22-.097.453-.17.7-.073.247-.153.49-.24.73s-.17.433-.25.58c-.147.267-.253.4-.32.4s-.133-.193-.2-.58a1.694 1.694 0 0 1 .3-1.34c.2-.293.297-.65.29-1.07a3.281 3.281 0 0 0-.29-1.27c-.067-.147-.083-.25-.05-.31s.143.003.33.19c.107.12.203.26.29.42.087.16.163.32.23.48l.08-.04c.36-.187.92-.413 1.68-.68.76-.267 1.64-.54 2.64-.82.307-.093.63-.18.97-.26.34-.08.69-.16 1.05-.24.027-.053.067-.113.12-.18.053-.067.12-.14.2-.22.213-.213.443-.463.69-.75.247-.287.477-.567.69-.84.213-.273.4-.527.56-.76.16-.233.273-.41.34-.53.147-.307.22-.553.22-.74 0-.187-.087-.387-.26-.6-.147-.187-.213-.313-.2-.38.013-.067.16-.007.44.18.427.293.69.58.79.86.1.28.063.547-.11.8a5.39 5.39 0 0 1-.44.57c-.2.233-.423.487-.67.76a22.678 22.678 0 0 1-1.63 1.63.313.313 0 0 0-.08.06c.56-.12 1.1-.223 1.62-.31s.993-.15 1.42-.19c.44-.053.863-.037 1.27.05.407.087.83.263 1.27.53zm-4.48 9.12c.04-.413.027-.8-.04-1.16a1.99 1.99 0 0 1-.21.03c-.073.007-.15.017-.23.03-.387.04-.567.03-.54-.03.027-.06.207-.123.54-.19.067-.013.13-.027.19-.04.06-.013.123-.027.19-.04a1.784 1.784 0 0 0-.34-.76c-.413.053-.927.153-1.54.3-.733.173-1.413.363-2.04.57a12.86 12.86 0 0 0-1.52.59c-.787.387-1.197.747-1.23 1.08-.033.333.223.647.77.94a13.128 13.128 0 0 0 1.38.7c.24.107.507.213.8.32.293.107.647.22 1.06.34.32.093.58.16.78.2.2.04.37.04.51 0a.783.783 0 0 0 .38-.26c.113-.133.25-.32.41-.56.12-.173.217-.33.29-.47.073-.14.137-.287.19-.44.053-.153.093-.317.12-.49.027-.173.053-.393.08-.66zm1.16-2.24a10.099 10.099 0 0 0-.9 0c.107.2.193.44.26.72l.52-.11c.16-.033.293-.063.4-.09.373-.107.533-.21.48-.31-.053-.1-.307-.17-.76-.21zm17.469-8.3c.413.013.763.097 1.05.25.286.153.51.403.67.75.12.253.163.417.13.49-.034.073-.177.097-.43.07a3.632 3.632 0 0 0-.97-.03 4.997 4.997 0 0 0-.95.19c-.267.08-.42.087-.46.02-.04-.067.073-.147.34-.24.32-.12.56-.22.72-.3.16-.08.26-.15.3-.21.04-.06.03-.113-.03-.16a1.254 1.254 0 0 0-.29-.15 7.499 7.499 0 0 0-.95-.3 15.8 15.8 0 0 0-1.07-.22 1.133 1.133 0 0 1-.09.18 1.934 1.934 0 0 0-.09.16c-.387.733-.837 1.48-1.35 2.24-.514.76-1.047 1.48-1.6 2.16-.554.68-1.107 1.3-1.66 1.86-.554.56-1.07 1-1.55 1.32-.387.267-.594.35-.62.25-.027-.1.133-.31.48-.63a21.328 21.328 0 0 0 1.67-1.75c.566-.66 1.12-1.367 1.66-2.12.54-.753 1.05-1.543 1.53-2.37.48-.827.906-1.667 1.28-2.52.12-.267.176-.493.17-.68a1.555 1.555 0 0 0-.13-.56c-.107-.24-.124-.37-.05-.39.073-.02.276.083.61.31.466.333.72.593.76.78a.519.519 0 0 1-.16.5c-.2.2-.407.487-.62.86.28.067.53.12.75.16.22.04.536.067.95.08zm1.4 7.98a.997.997 0 0 1 .17-.32c.06-.067.106-.087.14-.06.033.027.043.103.03.23a2.36 2.36 0 0 1-.16.55c-.12.32-.27.627-.45.92-.18.293-.407.59-.68.89-.274.3-.594.607-.96.92-.367.313-.79.643-1.27.99-.227.16-.42.273-.58.34a.668.668 0 0 1-.43.05c-.127-.033-.25-.12-.37-.26s-.26-.343-.42-.61a3.3 3.3 0 0 1-.31-.84c-.06-.28-.077-.627-.05-1.04l.04-.59.04-.62c.013-.22.036-.467.07-.74.033-.273.076-.583.13-.93a4.92 4.92 0 0 1 .09-.59c.033-.14.063-.29.09-.45.04-.253.096-.4.17-.44.073-.04.183.06.33.3.226.253.486.5.78.74.293.24.546.44.76.6.2.147.356.22.47.22.113 0 .256-.14.43-.42.186-.293.34-.63.46-1.01s.226-.81.32-1.29c.066-.32.03-.567-.11-.74-.14-.173-.404-.207-.79-.1-.56.12-1 .267-1.32.44a.99.99 0 0 1-.5.1c-.16-.013-.327-.12-.5-.32-.227-.28-.32-.47-.28-.57.04-.1.16-.11.36-.03.133.053.26.09.38.11.12.02.26.017.42-.01.16-.027.353-.073.58-.14.226-.067.513-.16.86-.28.24-.093.493-.12.76-.08.266.04.526.153.78.34.453.347.586.653.4.92a1.99 1.99 0 0 0-.21.32 3.246 3.246 0 0 0-.17.48c-.107.507-.274 1-.5 1.48-.227.48-.554 1.007-.98 1.58-.32.48-.647.5-.98.06a9.352 9.352 0 0 0-.53-.72c-.234-.293-.45-.573-.65-.84 0 .013-.014.06-.04.14a7.972 7.972 0 0 1-.14.47c-.067.207-.12.49-.16.85-.054.4-.094.74-.12 1.02-.027.28-.04.527-.04.74 0 .213.01.403.03.57.02.167.05.337.09.51.093.427.236.667.43.72.193.053.443-.02.75-.22.933-.627 1.666-1.197 2.2-1.71.533-.513.913-1.057 1.14-1.63zm2.08-2.96a4.727 4.727 0 0 0-.21-1.6 5.404 5.404 0 0 0-.33-.82 3.35 3.35 0 0 0-.46-.7c-.267-.307-.374-.493-.32-.56.053-.067.193-.013.42.16.173.133.366.307.58.52.213.213.433.513.66.9.053.093.126.137.22.13.093-.007.153-.07.18-.19.173-.627.3-.957.38-.99.08-.033.02.303-.18 1.01-.094.333-.16.67-.2 1.01-.04.34-.054.79-.04 1.35 0 .68-.02 1.27-.06 1.77-.04.5-.094.923-.16 1.27-.067.347-.14.497-.22.45-.08-.047-.187-.33-.32-.85-.067-.307-.09-.687-.07-1.14.02-.453.063-1.027.13-1.72zm4.16 6.74c.026.267.03.543.01.83-.02.287-.077.55-.17.79-.094.227-.207.347-.34.36-.134.013-.354-.14-.66-.46a4.706 4.706 0 0 0-.54-.5 7.361 7.361 0 0 0-.63-.44c-.234-.147-.5-.307-.8-.48-.3-.173-.644-.373-1.03-.6-.307-.187-.43-.31-.37-.37s.223-.03.49.09l1.01.45c.286.127.65.277 1.09.45.253.107.453.177.6.21.146.033.26.013.34-.06.08-.073.126-.213.14-.42a9.679 9.679 0 0 0 0-.89c-.067-1.6-.107-3.247-.12-4.94-.014-1.693.026-3.54.12-5.54.026-.507.03-.933.01-1.28a6.138 6.138 0 0 0-.1-.86 1.806 1.806 0 0 0-.18-.53.906.906 0 0 0-.25-.29c-.147-.12-.284-.143-.41-.07-.127.073-.237.283-.33.63-.054.2-.137.27-.25.21-.114-.06-.144-.21-.09-.45.106-.56.283-.893.53-1 .246-.107.543-.02.89.26.386.333.646.687.78 1.06.133.373.186.667.16.88-.027.107-.04.277-.04.51 0 .233-.014.59-.04 1.07-.027.587-.05 1.17-.07 1.75-.02.58-.034 1.21-.04 1.89a87.78 87.78 0 0 0 .01 2.26c.013.827.04 1.767.08 2.82l.03.85a14.965 14.965 0 0 0 .08 1.16c.02.18.05.397.09.65zm11.588-12.14c-.44 0-.66-.023-.66-.07 0-.047.133-.083.4-.11.507-.04.98-.16 1.42-.36.267-.133.393-.283.38-.45-.013-.167-.14-.37-.38-.61a2.414 2.414 0 0 0-.62-.46c-.267-.147-.56-.313-.88-.5-.093-.053-.103-.11-.03-.17.073-.06.17-.077.29-.05.187.067.36.13.52.19.16.06.333.13.52.21.227.107.453.25.68.43.227.18.393.39.5.63.253.507.193.827-.18.96-.267.093-.583.17-.95.23s-.703.103-1.01.13zm-3.72 1.66c-.24-.12-.327-.213-.26-.28.067-.067.227-.08.48-.04.227.027.493.02.8-.02.307-.04.727-.14 1.26-.3 1-.293 1.847-.54 2.54-.74.693-.2 1.307-.393 1.84-.58.253-.08.443-.107.57-.08a.433.433 0 0 1 .29.2c.027.04-.01.117-.11.23s-.343.263-.73.45c-.347.173-.787.47-1.32.89-.533.42-1.107.937-1.72 1.55.453-.28.847-.487 1.18-.62.333-.133.62-.217.86-.25s.443-.02.61.04c.167.06.317.15.45.27.267.227.39.447.37.66-.02.213-.143.373-.37.48a7.407 7.407 0 0 1-.75.36c-.313.133-.703.287-1.17.46a5.414 5.414 0 0 1-.55.18c-.113.027-.18.03-.2.01-.02-.02-.007-.047.04-.08a.723.723 0 0 1 .19-.09 6.03 6.03 0 0 0 .68-.36c.293-.173.613-.373.96-.6.2-.133.327-.267.38-.4.053-.133.043-.247-.03-.34-.073-.093-.207-.153-.4-.18-.193-.027-.437 0-.73.08-.16.04-.343.11-.55.21-.207.1-.413.213-.62.34a5.438 5.438 0 0 0-1.13.93c-.36.387-.583.543-.67.47-.087-.073-.103-.263-.05-.57.04-.187.12-.353.24-.5.12-.147.327-.32.62-.52.12-.08.293-.217.52-.41.227-.193.463-.403.71-.63.247-.227.487-.453.72-.68.233-.227.423-.42.57-.58-.68.173-1.313.363-1.9.57-.587.207-1.053.403-1.4.59-.28.16-.64.223-1.08.19a2.817 2.817 0 0 1-1.14-.31zm6.26 4.5c.36-.107.637-.15.83-.13a.79.79 0 0 1 .51.27c.187.187.223.313.11.38s-.483.113-1.11.14a5.466 5.466 0 0 0-.8.1c-.267.053-.54.127-.82.22a3.736 3.736 0 0 0-.01.48c.007.173.017.367.03.58.013.16.023.323.03.49.007.167.017.33.03.49.2.027.4.087.6.18a.991.991 0 0 0 .3.1.362.362 0 0 0 .26-.06.94.94 0 0 0 .25-.29c.087-.14.183-.343.29-.61.373-.893.583-1.307.63-1.24.047.067-.083.52-.39 1.36-.107.253-.18.5-.22.74-.04.24-.047.447-.02.62.027.12-.073.203-.3.25-.227.047-.507-.043-.84-.27a3.26 3.26 0 0 0-.54-.3c.027.56.047 1.063.06 1.51.013.447.007.81-.02 1.09-.027.493-.103.743-.23.75-.127.007-.323-.23-.59-.71-.107-.2-.207-.36-.3-.48a7.147 7.147 0 0 0-.3-.36c-.36-.387-.527-.603-.5-.65.027-.047.22.037.58.25.32.187.533.26.64.22.107-.04.153-.173.14-.4a8.609 8.609 0 0 1-.05-.68 15.043 15.043 0 0 0-.03-.6c-.227.067-.5.247-.82.54-.2.2-.383.423-.55.67-.167.247-.283.45-.35.61-.08.187-.157.267-.23.24-.073-.027-.183-.153-.33-.38a3.865 3.865 0 0 1-.32-.62 2.626 2.626 0 0 1-.18-.62c-.067-.32-.073-.483-.02-.49.053-.007.227.163.52.51.067.08.13.133.19.16.06.027.14.027.24 0 .1-.027.23-.093.39-.2.16-.107.367-.253.62-.44.267-.2.54-.327.82-.38-.013-.32-.02-.617-.02-.89v-.97c-.64.267-1.317.627-2.03 1.08-.713.453-1.49 1.04-2.33 1.76-.36.293-.697.487-1.01.58-.313.093-.703.047-1.17-.14-.28-.107-.41-.183-.39-.23.02-.047.143-.07.37-.07.12 0 .243-.01.37-.03.127-.02.273-.063.44-.13.167-.067.36-.163.58-.29.22-.127.483-.303.79-.53a23.507 23.507 0 0 1 2.1-1.41c.747-.447 1.5-.83 2.26-1.15-.027-.267-.05-.507-.07-.72-.02-.213-.05-.353-.09-.42a.978.978 0 0 1-.06-.1l-.04-.08c-.48.187-.98.427-1.5.72a6.66 6.66 0 0 1-.62.31c-.173.073-.333.12-.48.14-.147.02-.293.01-.44-.03a2.206 2.206 0 0 1-.5-.22c-.107-.067-.157-.13-.15-.19.007-.06.063-.083.17-.07.107.013.253.013.44 0s.44-.093.76-.24a53.764 53.764 0 0 1 2.36-.99c.36-.14.68-.26.96-.36.28-.1.493-.17.64-.21.227-.053.467-.067.72-.04.253.027.413.1.48.22.08.147.093.247.04.3-.053.053-.213.087-.48.1-.56.027-1.18.147-1.86.36.413.16.56.427.44.8a1.58 1.58 0 0 0-.06.24l-.04.24c.187-.067.383-.133.59-.2a9.77 9.77 0 0 1 .63-.18zm8.48-2.86c.373.147.53.28.47.4-.06.12-.223.153-.49.1a2.35 2.35 0 0 0-.68-.05 2.06 2.06 0 0 0-.58.17c-.72.307-1.407.653-2.06 1.04s-1.193.74-1.62 1.06a5.5 5.5 0 0 1-.42.29c-.12.073-.227.13-.32.17-.027.64-.063 1.243-.11 1.81a19.368 19.368 0 0 1-.17 1.47c-.107.64-.207.98-.3 1.02-.093.04-.16-.24-.2-.84-.027-.373-.05-.663-.07-.87a4.098 4.098 0 0 1 .01-.75c.067-.853.12-1.577.16-2.17.04-.593.08-1.143.12-1.65a3.808 3.808 0 0 0-.02-.67 3.157 3.157 0 0 0-.15-.67 2.597 2.597 0 0 0-.28-.58 1.45 1.45 0 0 0-.41-.42c-.333-.227-.487-.383-.46-.47.027-.087.127-.123.3-.11.173 0 .34.04.5.12a.654.654 0 0 0 .07-.04.654.654 0 0 1 .07-.04 9.822 9.822 0 0 0 1.47-1.12c.447-.413.87-.88 1.27-1.4.133-.173.117-.327-.05-.46s-.403-.153-.71-.06c-.24.08-.353.097-.34.05.013-.047.113-.137.3-.27s.41-.207.67-.22c.26-.013.543.073.85.26.2.12.28.307.24.56-.04.253-.273.58-.7.98a9.341 9.341 0 0 1-.59.53 15.077 15.077 0 0 1-1.57 1.15 3.07 3.07 0 0 1-.62.32c.173.187.32.437.44.75s.207.73.26 1.25c.027.267.043.547.05.84.007.293.003.593-.01.9.16-.12.387-.273.68-.46.293-.187.62-.383.98-.59.36-.207.74-.42 1.14-.64.4-.22.793-.423 1.18-.61.187-.093.347-.163.48-.21a1.189 1.189 0 0 1 .75-.04c.127.033.283.09.47.17zm-2.88.02a1.574 1.574 0 0 1-.11-.38c-.033-.173.03-.327.19-.46a.336.336 0 0 1 .31-.08c.113.027.217.08.31.16s.17.17.23.27.083.19.07.27c-.027.16-.047.437-.06.83-.013.393-.02.79-.02 1.19v2.28c0 .507.01 1.04.03 1.6.02.56.05 1.093.09 1.6.04.507.06 1.02.06 1.54s-.053 1.1-.16 1.74c-.04.32-.087.567-.14.74-.053.173-.103.26-.15.26s-.09-.1-.13-.3c-.04-.2-.067-.52-.08-.96a107.289 107.289 0 0 1-.11-4.05l-.02-2.43c-.007-.84-.01-1.687-.01-2.54 0-.28-.023-.52-.07-.72a1.874 1.874 0 0 0-.23-.56z" fill="#000"/></g></svg>